<svg xmlns="http://www.w3.org/2000/svg" viewBox="0 0 820 340" font-family="-apple-system, BlinkMacSystemFont, Segoe UI, Helvetica, Arial, sans-serif">
  <rect x="2" y="2" width="816" height="336" rx="12" fill="#ffffff" stroke="#e5e7eb"/>
  <text x="24" y="28" font-size="15" font-weight="700" fill="#1f2328">иҝ‘ 7 ж—Ҙе‘ҪдёӯзҺҮи¶ӢеҠҝпјҲ30еңәе·Із»“з®— В· йҖҗжЎЈе‘ҪдёӯзҺҮ В· 6жқЎжӣІзәҝпјү</text>

  <!-- legend (positioned below title to avoid overlap) -->
  <rect x="320" y="40" width="12" height="12" rx="2" fill="#2563eb"/>
  <text x="337" y="51" font-size="11" fill="#374151">ж•ҙдҪ“</text>
  <rect x="380" y="40" width="12" height="12" rx="2" fill="#dc2626"/>
  <text x="397" y="51" font-size="11" fill="#374151">иғңе№іиҙҹ</text>
  <rect x="452" y="40" width="12" height="12" rx="2" fill="#16a34a"/>
  <text x="469" y="51" font-size="11" fill="#374151">и®©зҗғ</text>
  <rect x="510" y="40" width="12" height="12" rx="2" fill="#f59e0b"/>
  <text x="527" y="51" font-size="11" fill="#374151">жҜ”еҲҶ</text>
  <rect x="572" y="40" width="12" height="12" rx="2" fill="#8b5cf6"/>
  <text x="589" y="51" font-size="11" fill="#374151">еӨ§е°Ҹзҗғ</text>
  <rect x="645" y="40" width="12" height="12" rx="2" fill="#06b6d4"/>
  <text x="662" y="51" font-size="11" fill="#374151">еҚҠе…Ёеңә</text>

  <!-- y gridlines + labels: 0%=300, 25%=238, 50%=175, 75%=113, 100%=50 -->
  <g stroke="#eef0f2" stroke-width="1">
    <line x1="58" y1="50"  x2="762" y2="50"/>
    <line x1="58" y1="113" x2="762" y2="113"/>
    <line x1="58" y1="175" x2="762" y2="175"/>
    <line x1="58" y1="238" x2="762" y2="238"/>
    <line x1="58" y1="300" x2="762" y2="300"/>
  </g>
  <g font-size="11" fill="#9ca3af" text-anchor="end">
    <text x="50" y="54">100%</text>
    <text x="50" y="117">75%</text>
    <text x="50" y="179">50%</text>
    <text x="50" y="242">25%</text>
    <text x="50" y="304">0%</text>
  </g>

  <!-- x day labels -->
  <g font-size="11" fill="#9ca3af" text-anchor="middle">
    <text x="100" y="320">06-21</text>
    <text x="210" y="320">06-22</text>
    <text x="320" y="320">06-23</text>
    <text x="430" y="320">06-24</text>
    <text x="540" y="320">06-25</text>
    <text x="650" y="320">06-26</text>
  </g>

  <!-- ===== ж•ҙдҪ“ йҖҗжЎЈ (blue #2563eb): 24%вҶ’45%вҶ’35%вҶ’27%вҶ’30%вҶ’34% ===== -->
  <polyline points="100,240 210,188 320,212 430,232 540,225 650,215" fill="none" stroke="#2563eb" stroke-width="2.8"/>
  <circle cx="100" cy="240" r="4" fill="#2563eb"/><circle cx="210" cy="188" r="4" fill="#2563eb"/>
  <circle cx="320" cy="212" r="4" fill="#2563eb"/><circle cx="430" cy="232" r="4" fill="#2563eb"/>
  <circle cx="540" cy="225" r="4" fill="#2563eb"/><circle cx="650" cy="215" r="4" fill="#2563eb"/>
  <text x="100" y="252" font-size="9" font-weight="600" fill="#1d4ed8" text-anchor="middle">24%</text>
  <text x="210" y="200" font-size="9" font-weight="600" fill="#1d4ed8" text-anchor="middle">45%</text>
  <text x="320" y="224" font-size="9" font-weight="600" fill="#1d4ed8" text-anchor="middle">35%</text>
  <text x="430" y="244" font-size="9" font-weight="600" fill="#1d4ed8" text-anchor="middle">27%</text>
  <text x="540" y="237" font-size="9" font-weight="600" fill="#1d4ed8" text-anchor="middle">30%</text>
  <text x="650" y="227" font-size="9" font-weight="600" fill="#1d4ed8" text-anchor="middle">34%</text>

  <!-- ===== иғңе№іиҙҹ (red #dc2626): 71%вҶ’80%вҶ’75%вҶ’56%вҶ’45%вҶ’55% ===== -->
  <polyline points="100,122 210,100 320,112 430,160 540,188 650,162" fill="none" stroke="#dc2626" stroke-width="2"/>
  <circle cx="100" cy="122" r="3.5" fill="#dc2626"/><circle cx="210" cy="100" r="3.5" fill="#dc2626"/>
  <circle cx="320" cy="112" r="3.5" fill="#dc2626"/><circle cx="430" cy="160" r="3.5" fill="#dc2626"/>
  <circle cx="540" cy="188" r="3.5" fill="#dc2626"/><circle cx="650" cy="162" r="3.5" fill="#dc2626"/>

  <!-- ===== и®©зҗғ (green #16a34a): 50%вҶ’50%вҶ’50%вҶ’33%вҶ’55%вҶ’50% ===== -->
  <polyline points="100,175 210,175 320,175 430,218 540,162 650,175" fill="none" stroke="#16a34a" stroke-width="2"/>
  <circle cx="100" cy="175" r="3.5" fill="#16a34a"/><circle cx="210" cy="175" r="3.5" fill="#16a34a"/>
  <circle cx="320" cy="175" r="3.5" fill="#16a34a"/><circle cx="430" cy="218" r="3.5" fill="#16a34a"/>
  <circle cx="540" cy="162" r="3.5" fill="#16a34a"/><circle cx="650" cy="175" r="3.5" fill="#16a34a"/>

  <!-- ===== жҜ”еҲҶ (amber #f59e0b): 0%вҶ’30%вҶ’20%вҶ’6%вҶ’13%вҶ’12% ===== -->
  <polyline points="100,300 210,225 320,250 430,285 540,268 650,270" fill="none" stroke="#f59e0b" stroke-width="2"/>
  <circle cx="100" cy="300" r="3.5" fill="#f59e0b"/><circle cx="210" cy="225" r="3.5" fill="#f59e0b"/>
  <circle cx="320" cy="250" r="3.5" fill="#f59e0b"/><circle cx="430" cy="285" r="3.5" fill="#f59e0b"/>
  <circle cx="540" cy="268" r="3.5" fill="#f59e0b"/><circle cx="650" cy="270" r="3.5" fill="#f59e0b"/>

  <!-- ===== еӨ§е°Ҹзҗғ (purple #8b5cf6): 13%вҶ’38%вҶ’25%вҶ’17%вҶ’25%вҶ’17% ===== -->
  <polyline points="100,268 210,205 320,238 430,258 540,238 650,258" fill="none" stroke="#8b5cf6" stroke-width="2"/>
  <circle cx="100" cy="268" r="3.5" fill="#8b5cf6"/><circle cx="210" cy="205" r="3.5" fill="#8b5cf6"/>
  <circle cx="320" cy="238" r="3.5" fill="#8b5cf6"/><circle cx="430" cy="258" r="3.5" fill="#8b5cf6"/>
  <circle cx="540" cy="238" r="3.5" fill="#8b5cf6"/><circle cx="650" cy="258" r="3.5" fill="#8b5cf6"/>

  <!-- ===== еҚҠе…Ёеңә (cyan #06b6d4): 20%вҶ’50%вҶ’40%вҶ’36%вҶ’18%вҶ’50% ===== -->
  <polyline points="100,250 210,175 320,200 430,210 540,255 650,175" fill="none" stroke="#06b6d4" stroke-width="2"/>
  <circle cx="100" cy="250" r="3.5" fill="#06b6d4"/><circle cx="210" cy="175" r="3.5" fill="#06b6d4"/>
  <circle cx="320" cy="200" r="3.5" fill="#06b6d4"/><circle cx="430" cy="210" r="3.5" fill="#06b6d4"/>
  <circle cx="540" cy="255" r="3.5" fill="#06b6d4"/><circle cx="650" cy="175" r="3.5" fill="#06b6d4"/>

  <!-- batch labels -->
  <text x="100" y="334" font-size="9" fill="#9ca3af" text-anchor="middle">v1.0 (4еңә)</text>
  <text x="210" y="334" font-size="9" fill="#9ca3af" text-anchor="middle">v1.1 (4еңә)</text>
  <text x="320" y="334" font-size="9" fill="#9ca3af" text-anchor="middle">v1.2 (4еңә)</text>
  <text x="430" y="334" font-size="9" fill="#9ca3af" text-anchor="middle">v1.3 (6еңә)</text>
  <text x="540" y="334" font-size="9" fill="#9ca3af" text-anchor="middle">v1.5 (6еңә)</text>
  <text x="650" y="334" font-size="9" fill="#9ca3af" text-anchor="middle">v1.6 (6еңә)</text>
</svg>
